<svg width="1634" height="601" viewBox="0 0 1634 601" fill="none" xmlns="http://www.w3.org/2000/svg">
<path d="M211.699 254H186.983L224.643 144.909H254.366L291.972 254H267.256L239.93 169.838H239.078L211.699 254ZM210.154 211.12H268.535V229.124H210.154V211.12ZM407.469 195.513L386.694 196.791C386.339 195.016 385.576 193.418 384.404 191.997C383.232 190.541 381.687 189.387 379.77 188.535C377.888 187.647 375.633 187.203 373.005 187.203C369.489 187.203 366.524 187.949 364.109 189.44C361.694 190.896 360.487 192.849 360.487 195.3C360.487 197.253 361.268 198.904 362.831 200.254C364.393 201.603 367.074 202.686 370.874 203.503L385.682 206.486C393.637 208.119 399.567 210.747 403.474 214.369C407.38 217.991 409.333 222.75 409.333 228.645C409.333 234.007 407.753 238.712 404.592 242.761C401.467 246.809 397.17 249.969 391.702 252.242C386.268 254.479 380.001 255.598 372.898 255.598C362.067 255.598 353.438 253.343 347.01 248.833C340.618 244.288 336.872 238.109 335.771 230.296L358.09 229.124C358.765 232.427 360.398 234.948 362.991 236.688C365.583 238.393 368.903 239.245 372.952 239.245C376.929 239.245 380.125 238.482 382.54 236.955C384.99 235.392 386.233 233.386 386.268 230.935C386.233 228.876 385.363 227.189 383.658 225.875C381.954 224.526 379.326 223.496 375.775 222.786L361.606 219.962C353.616 218.364 347.667 215.594 343.761 211.653C339.89 207.711 337.955 202.686 337.955 196.578C337.955 191.322 339.376 186.795 342.216 182.995C345.093 179.195 349.123 176.266 354.308 174.206C359.528 172.146 365.636 171.116 372.632 171.116C382.966 171.116 391.098 173.3 397.028 177.668C402.994 182.036 406.474 187.984 407.469 195.513ZM467.141 172.182V189.227H417.869V172.182H467.141ZM429.055 152.58H451.747V228.858C451.747 230.953 452.066 232.587 452.706 233.759C453.345 234.895 454.233 235.694 455.369 236.156C456.541 236.617 457.89 236.848 459.417 236.848C460.483 236.848 461.548 236.759 462.613 236.582C463.679 236.369 464.495 236.209 465.064 236.102L468.632 252.988C467.496 253.343 465.898 253.751 463.838 254.213C461.779 254.71 459.275 255.012 456.328 255.119C450.859 255.332 446.065 254.604 441.946 252.935C437.862 251.266 434.684 248.673 432.411 245.158C430.138 241.642 429.02 237.203 429.055 231.841V152.58ZM481.923 254V172.182H503.922V186.457H504.774C506.266 181.379 508.769 177.544 512.285 174.952C515.8 172.324 519.849 171.01 524.43 171.01C525.566 171.01 526.791 171.081 528.105 171.223C529.419 171.365 530.573 171.56 531.567 171.809V191.944C530.502 191.624 529.028 191.34 527.146 191.092C525.264 190.843 523.542 190.719 521.979 190.719C518.641 190.719 515.658 191.447 513.031 192.903C510.438 194.323 508.379 196.312 506.852 198.869C505.36 201.425 504.614 204.373 504.614 207.711V254H481.923ZM543.3 254V172.182H565.991V254H543.3ZM554.699 161.635C551.325 161.635 548.431 160.516 546.016 158.279C543.637 156.006 542.447 153.29 542.447 150.129C542.447 147.004 543.637 144.323 546.016 142.086C548.431 139.813 551.325 138.677 554.699 138.677C558.072 138.677 560.949 139.813 563.328 142.086C565.743 144.323 566.95 147.004 566.95 150.129C566.95 153.29 565.743 156.006 563.328 158.279C560.949 160.516 558.072 161.635 554.699 161.635ZM606.86 206.699V254H584.169V172.182H605.795V186.617H606.754C608.565 181.859 611.601 178.094 615.863 175.325C620.124 172.519 625.291 171.116 631.363 171.116C637.045 171.116 641.999 172.359 646.225 174.845C650.451 177.331 653.735 180.882 656.079 185.499C658.423 190.08 659.595 195.548 659.595 201.905V254H636.903V205.953C636.939 200.946 635.66 197.04 633.068 194.234C630.475 191.393 626.907 189.973 622.361 189.973C619.307 189.973 616.608 190.63 614.265 191.944C611.956 193.258 610.145 195.175 608.831 197.697C607.553 200.183 606.896 203.183 606.86 206.699ZM714.34 286.386C706.989 286.386 700.686 285.374 695.43 283.35C690.21 281.362 686.055 278.645 682.966 275.2C679.876 271.756 677.87 267.885 676.947 263.588L697.934 260.765C698.573 262.398 699.585 263.925 700.97 265.346C702.355 266.766 704.184 267.903 706.457 268.755C708.765 269.643 711.57 270.087 714.873 270.087C719.809 270.087 723.875 268.879 727.071 266.464C730.302 264.085 731.918 260.09 731.918 254.479V239.511H730.959C729.965 241.784 728.474 243.933 726.485 245.957C724.496 247.981 721.939 249.632 718.814 250.911C715.689 252.189 711.961 252.828 707.628 252.828C701.485 252.828 695.892 251.408 690.849 248.567C685.842 245.69 681.847 241.305 678.864 235.41C675.917 229.479 674.443 221.987 674.443 212.931C674.443 203.663 675.952 195.921 678.971 189.707C681.989 183.492 686.002 178.84 691.009 175.751C696.052 172.661 701.574 171.116 707.575 171.116C712.156 171.116 715.991 171.898 719.081 173.46C722.17 174.987 724.656 176.905 726.538 179.213C728.456 181.486 729.93 183.723 730.959 185.925H731.812V172.182H754.344V254.799C754.344 261.759 752.639 267.583 749.23 272.271C745.821 276.958 741.098 280.474 735.061 282.817C729.059 285.197 722.153 286.386 714.34 286.386ZM714.819 235.783C718.477 235.783 721.567 234.877 724.088 233.066C726.645 231.219 728.598 228.592 729.947 225.183C731.332 221.738 732.025 217.619 732.025 212.825C732.025 208.031 731.35 203.876 730.001 200.36C728.651 196.809 726.698 194.057 724.141 192.104C721.584 190.151 718.477 189.174 714.819 189.174C711.091 189.174 707.948 190.186 705.391 192.21C702.834 194.199 700.899 196.969 699.585 200.52C698.271 204.071 697.614 208.173 697.614 212.825C697.614 217.548 698.271 221.631 699.585 225.076C700.934 228.485 702.87 231.131 705.391 233.013C707.948 234.859 711.091 235.783 714.819 235.783ZM823.258 254L800.992 172.182H823.95L836.628 227.153H837.374L850.584 172.182H873.116L886.539 226.834H887.232L899.696 172.182H922.601L900.388 254H876.365L862.303 202.544H861.29L847.228 254H823.258ZM934.706 254V172.182H957.398V254H934.706ZM946.105 161.635C942.731 161.635 939.837 160.516 937.422 158.279C935.043 156.006 933.854 153.29 933.854 150.129C933.854 147.004 935.043 144.323 937.422 142.086C939.837 139.813 942.731 138.677 946.105 138.677C949.479 138.677 952.355 139.813 954.734 142.086C957.149 144.323 958.356 147.004 958.356 150.129C958.356 153.29 957.149 156.006 954.734 158.279C952.355 160.516 949.479 161.635 946.105 161.635ZM1019.09 172.182V189.227H969.822V172.182H1019.09ZM981.008 152.58H1003.7V228.858C1003.7 230.953 1004.02 232.587 1004.66 233.759C1005.3 234.895 1006.19 235.694 1007.32 236.156C1008.49 236.617 1009.84 236.848 1011.37 236.848C1012.44 236.848 1013.5 236.759 1014.57 236.582C1015.63 236.369 1016.45 236.209 1017.02 236.102L1020.59 252.988C1019.45 253.343 1017.85 253.751 1015.79 254.213C1013.73 254.71 1011.23 255.012 1008.28 255.119C1002.81 255.332 998.018 254.604 993.899 252.935C989.815 251.266 986.637 248.673 984.364 245.158C982.091 241.642 980.973 237.203 981.008 231.841V152.58ZM1058.33 206.699V254H1035.63V144.909H1057.69V186.617H1058.64C1060.49 181.788 1063.47 178.006 1067.59 175.271C1071.71 172.501 1076.88 171.116 1083.09 171.116C1088.78 171.116 1093.73 172.359 1097.96 174.845C1102.22 177.295 1105.52 180.829 1107.86 185.445C1110.24 190.026 1111.41 195.513 1111.38 201.905V254H1088.69V205.953C1088.72 200.911 1087.44 196.987 1084.85 194.181C1082.3 191.376 1078.71 189.973 1074.09 189.973C1071 189.973 1068.27 190.63 1065.89 191.944C1063.55 193.258 1061.7 195.175 1060.35 197.697C1059.04 200.183 1058.36 203.183 1058.33 206.699ZM1180.09 254L1157.83 172.182H1180.79L1193.46 227.153H1194.21L1207.42 172.182H1229.95L1243.38 226.834H1244.07L1256.53 172.182H1279.44L1257.22 254H1233.2L1219.14 202.544H1218.13L1204.06 254H1180.09ZM1326.46 255.598C1318.18 255.598 1311.03 253.84 1304.99 250.325C1298.99 246.773 1294.36 241.837 1291.09 235.516C1287.82 229.16 1286.19 221.791 1286.19 213.411C1286.19 204.959 1287.82 197.572 1291.09 191.251C1294.36 184.895 1298.99 179.959 1304.99 176.443C1311.03 172.892 1318.18 171.116 1326.46 171.116C1334.73 171.116 1341.87 172.892 1347.87 176.443C1353.91 179.959 1358.56 184.895 1361.83 191.251C1365.09 197.572 1366.73 204.959 1366.73 213.411C1366.73 221.791 1365.09 229.16 1361.83 235.516C1358.56 241.837 1353.91 246.773 1347.87 250.325C1341.87 253.84 1334.73 255.598 1326.46 255.598ZM1326.56 238.02C1330.33 238.02 1333.47 236.955 1335.99 234.824C1338.51 232.658 1340.41 229.71 1341.69 225.982C1343.01 222.253 1343.66 218.009 1343.66 213.251C1343.66 208.492 1343.01 204.249 1341.69 200.52C1340.41 196.791 1338.51 193.844 1335.99 191.678C1333.47 189.511 1330.33 188.428 1326.56 188.428C1322.77 188.428 1319.57 189.511 1316.98 191.678C1314.42 193.844 1312.48 196.791 1311.17 200.52C1309.89 204.249 1309.25 208.492 1309.25 213.251C1309.25 218.009 1309.89 222.253 1311.17 225.982C1312.48 229.71 1314.42 232.658 1316.98 234.824C1319.57 236.955 1322.77 238.02 1326.56 238.02ZM1381.48 254V172.182H1403.48V186.457H1404.33C1405.83 181.379 1408.33 177.544 1411.85 174.952C1415.36 172.324 1419.41 171.01 1423.99 171.01C1425.13 171.01 1426.35 171.081 1427.67 171.223C1428.98 171.365 1430.13 171.56 1431.13 171.809V191.944C1430.06 191.624 1428.59 191.34 1426.71 191.092C1424.82 190.843 1423.1 190.719 1421.54 190.719C1418.2 190.719 1415.22 191.447 1412.59 192.903C1410 194.323 1407.94 196.312 1406.41 198.869C1404.92 201.425 1404.17 204.373 1404.17 207.711V254H1381.48ZM1469.2 255.332C1462.99 255.332 1457.36 253.734 1452.31 250.538C1447.31 247.306 1443.33 242.565 1440.38 236.315C1437.47 230.03 1436.02 222.324 1436.02 213.197C1436.02 203.822 1437.52 196.028 1440.54 189.813C1443.56 183.563 1447.57 178.893 1452.58 175.804C1457.62 172.679 1463.15 171.116 1469.15 171.116C1473.73 171.116 1477.55 171.898 1480.6 173.46C1483.69 174.987 1486.18 176.905 1488.06 179.213C1489.97 181.486 1491.43 183.723 1492.43 185.925H1493.12V144.909H1515.76V254H1493.38V240.896H1492.43C1491.36 243.169 1489.85 245.424 1487.9 247.661C1485.98 249.863 1483.48 251.692 1480.39 253.148C1477.33 254.604 1473.6 255.332 1469.2 255.332ZM1476.39 237.274C1480.05 237.274 1483.14 236.28 1485.66 234.291C1488.22 232.267 1490.17 229.444 1491.52 225.822C1492.9 222.2 1493.6 217.956 1493.6 213.091C1493.6 208.226 1492.92 204 1491.57 200.413C1490.22 196.827 1488.27 194.057 1485.71 192.104C1483.16 190.151 1480.05 189.174 1476.39 189.174C1472.66 189.174 1469.52 190.186 1466.96 192.21C1464.41 194.234 1462.47 197.04 1461.16 200.626C1459.84 204.213 1459.19 208.368 1459.19 213.091C1459.19 217.849 1459.84 222.058 1461.16 225.715C1462.51 229.337 1464.44 232.178 1466.96 234.238C1469.52 236.262 1472.66 237.274 1476.39 237.274ZM1602.49 195.513L1581.71 196.791C1581.36 195.016 1580.6 193.418 1579.42 191.997C1578.25 190.541 1576.71 189.387 1574.79 188.535C1572.91 187.647 1570.65 187.203 1568.02 187.203C1564.51 187.203 1561.54 187.949 1559.13 189.44C1556.71 190.896 1555.51 192.849 1555.51 195.3C1555.51 197.253 1556.29 198.904 1557.85 200.254C1559.41 201.603 1562.09 202.686 1565.89 203.503L1580.7 206.486C1588.66 208.119 1594.59 210.747 1598.49 214.369C1602.4 217.991 1604.35 222.75 1604.35 228.645C1604.35 234.007 1602.77 238.712 1599.61 242.761C1596.49 246.809 1592.19 249.969 1586.72 252.242C1581.29 254.479 1575.02 255.598 1567.92 255.598C1557.09 255.598 1548.46 253.343 1542.03 248.833C1535.64 244.288 1531.89 238.109 1530.79 230.296L1553.11 229.124C1553.78 232.427 1555.42 234.948 1558.01 236.688C1560.6 238.393 1563.92 239.245 1567.97 239.245C1571.95 239.245 1575.14 238.482 1577.56 236.955C1580.01 235.392 1581.25 233.386 1581.29 230.935C1581.25 228.876 1580.38 227.189 1578.68 225.875C1576.97 224.526 1574.35 223.496 1570.79 222.786L1556.63 219.962C1548.64 218.364 1542.69 215.594 1538.78 211.653C1534.91 207.711 1532.97 202.686 1532.97 196.578C1532.97 191.322 1534.4 186.795 1537.24 182.995C1540.11 179.195 1544.14 176.266 1549.33 174.206C1554.55 172.146 1560.66 171.116 1567.65 171.116C1577.99 171.116 1586.12 173.3 1592.05 177.668C1598.01 182.036 1601.49 187.984 1602.49 195.513Z" fill="#006CA9"/>
<path d="M553.731 84.9943C548.712 84.9943 544.237 84.071 540.308 82.2244C536.401 80.3778 533.3 77.8329 531.004 74.5895C528.707 71.3461 527.512 67.6293 527.417 63.4389H542.332C542.497 66.2562 543.681 68.5407 545.883 70.2926C548.085 72.0445 550.701 72.9205 553.731 72.9205C556.146 72.9205 558.276 72.3878 560.123 71.3224C561.993 70.2334 563.449 68.7301 564.491 66.8125C565.556 64.8712 566.089 62.6458 566.089 60.1364C566.089 57.5795 565.544 55.3305 564.455 53.3892C563.39 51.4479 561.91 49.9328 560.016 48.8438C558.122 47.7547 555.956 47.1984 553.518 47.1747C551.387 47.1747 549.316 47.6127 547.303 48.4886C545.315 49.3646 543.764 50.5601 542.651 52.0753L528.979 49.625L532.424 11.2727H576.884V23.8438H545.102L543.219 42.0611H543.646C544.924 40.2618 546.853 38.7704 549.434 37.5866C552.014 36.4029 554.903 35.8111 558.099 35.8111C562.478 35.8111 566.385 36.8409 569.817 38.9006C573.25 40.9602 575.961 43.7893 577.95 47.3878C579.938 50.9626 580.921 55.0819 580.897 59.7457C580.921 64.6463 579.784 69.0024 577.488 72.8139C575.215 76.6018 572.031 79.5848 567.935 81.7628C563.863 83.9171 559.129 84.9943 553.731 84.9943Z" fill="#006CA9"/>
<path d="M774.469 84.9943C769 84.9943 764.135 84.1065 759.874 82.331C755.636 80.5317 752.31 78.0814 749.895 74.9801C747.48 71.8788 746.273 68.3632 746.273 64.4332C746.273 61.4029 746.959 58.6212 748.333 56.0881C749.729 53.5312 751.623 51.4124 754.014 49.7315C756.405 48.027 759.081 46.938 762.04 46.4645V45.9673C758.157 45.1861 755.009 43.304 752.594 40.321C750.179 37.3144 748.972 33.8224 748.972 29.8452C748.972 26.081 750.073 22.7311 752.274 19.7955C754.476 16.8362 757.494 14.5161 761.33 12.8352C765.189 11.1307 769.568 10.2784 774.469 10.2784C779.369 10.2784 783.737 11.1307 787.573 12.8352C791.432 14.5398 794.462 16.8717 796.664 19.831C798.865 22.7666 799.978 26.1046 800.002 29.8452C799.978 33.8461 798.747 37.3381 796.308 40.321C793.87 43.304 790.745 45.1861 786.933 45.9673V46.4645C789.845 46.938 792.485 48.027 794.852 49.7315C797.244 51.4124 799.137 53.5312 800.534 56.0881C801.955 58.6212 802.677 61.4029 802.7 64.4332C802.677 68.3632 801.458 71.8788 799.043 74.9801C796.628 78.0814 793.29 80.5317 789.029 82.331C784.791 84.1065 779.938 84.9943 774.469 84.9943ZM774.469 73.7017C776.907 73.7017 779.038 73.2637 780.861 72.3878C782.684 71.4882 784.104 70.2571 785.122 68.6946C786.164 67.1084 786.685 65.2855 786.685 63.2259C786.685 61.1188 786.152 59.2604 785.087 57.6506C784.021 56.017 782.577 54.7386 780.754 53.8153C778.932 52.8684 776.836 52.3949 774.469 52.3949C772.125 52.3949 770.03 52.8684 768.183 53.8153C766.337 54.7386 764.881 56.017 763.816 57.6506C762.774 59.2604 762.253 61.1188 762.253 63.2259C762.253 65.2855 762.762 67.1084 763.78 68.6946C764.798 70.2571 766.23 71.4882 768.077 72.3878C769.923 73.2637 772.054 73.7017 774.469 73.7017ZM774.469 41.2088C776.505 41.2088 778.316 40.7945 779.902 39.9659C781.488 39.1373 782.731 37.9891 783.631 36.5213C784.53 35.0535 784.98 33.3608 784.98 31.4432C784.98 29.5492 784.53 27.892 783.631 26.4716C782.731 25.0275 781.5 23.9029 779.938 23.098C778.375 22.2694 776.552 21.8551 774.469 21.8551C772.409 21.8551 770.586 22.2694 769 23.098C767.414 23.9029 766.171 25.0275 765.271 26.4716C764.396 27.892 763.958 29.5492 763.958 31.4432C763.958 33.3608 764.407 35.0535 765.307 36.5213C766.207 37.9891 767.45 39.1373 769.036 39.9659C770.622 40.7945 772.433 41.2088 774.469 41.2088Z" fill="#006CA9"/>
<path d="M1053.08 11.2727V84H1037.7V25.8679H1037.28L1020.62 36.3082V22.6719L1038.63 11.2727H1053.08ZM1070.36 84V72.9205L1096.25 48.9503C1098.45 46.8196 1100.3 44.902 1101.79 43.1974C1103.31 41.4929 1104.45 39.8239 1105.24 38.1903C1106.02 36.5331 1106.41 34.7457 1106.41 32.8281C1106.41 30.6974 1105.92 28.8627 1104.95 27.3239C1103.98 25.7614 1102.66 24.5658 1100.97 23.7372C1099.29 22.8849 1097.39 22.4588 1095.26 22.4588C1093.03 22.4588 1091.09 22.9086 1089.43 23.8082C1087.78 24.7079 1086.5 25.9981 1085.6 27.679C1084.7 29.3598 1084.25 31.3603 1084.25 33.6804H1069.65C1069.65 28.9219 1070.73 24.7907 1072.88 21.2869C1075.04 17.7831 1078.06 15.0724 1081.94 13.1548C1085.82 11.2372 1090.3 10.2784 1095.36 10.2784C1100.57 10.2784 1105.11 11.2017 1108.96 13.0483C1112.85 14.8712 1115.87 17.4044 1118.02 20.6477C1120.17 23.8911 1121.25 27.608 1121.25 31.7983C1121.25 34.5445 1120.71 37.2552 1119.62 39.9304C1118.55 42.6056 1116.65 45.5767 1113.9 48.8438C1111.15 52.0871 1107.28 55.9815 1102.29 60.527L1091.67 70.9318V71.429H1122.21V84H1070.36Z" fill="#006CA9"/>
<path d="M109.9 11.2727V84H96.6188L64.9782 38.2259H64.4455V84H49.0691V11.2727H62.5634L93.9554 57.0114H94.5946V11.2727H109.9ZM125.729 42.1676V29.5256H174.77V42.1676H125.729ZM125.729 65.7472V53.1051H174.77V65.7472H125.729Z" fill="#006CA9"/>
<path d="M550.464 400.536C552.417 402.488 555.583 402.488 557.536 400.536L589.355 368.716C591.308 366.763 591.308 363.597 589.355 361.645C587.403 359.692 584.237 359.692 582.284 361.645L554 389.929L525.716 361.645C523.763 359.692 520.597 359.692 518.645 361.645C516.692 363.597 516.692 366.763 518.645 368.716L550.464 400.536ZM549 278V397H559V278H549Z" fill="#82D1F5"/>
<path d="M1068.46 397.536C1070.42 399.488 1073.58 399.488 1075.54 397.536L1107.36 365.716C1109.31 363.763 1109.31 360.597 1107.36 358.645C1105.4 356.692 1102.24 356.692 1100.28 358.645L1072 386.929L1043.72 358.645C1041.76 356.692 1038.6 356.692 1036.64 358.645C1034.69 360.597 1034.69 363.763 1036.64 365.716L1068.46 397.536ZM1067 275V394H1077V275H1067Z" fill="#82D1F5"/>
<path d="M771.464 512.536C773.417 514.488 776.583 514.488 778.536 512.536L810.355 480.716C812.308 478.763 812.308 475.597 810.355 473.645C808.403 471.692 805.237 471.692 803.284 473.645L775 501.929L746.716 473.645C744.763 471.692 741.597 471.692 739.645 473.645C737.692 475.597 737.692 478.763 739.645 480.716L771.464 512.536ZM770 278V509H780V278H770Z" fill="#82D1F5"/>
<path d="M460.585 454.009L446.735 454.861C446.498 453.677 445.989 452.612 445.208 451.665C444.427 450.694 443.397 449.925 442.119 449.357C440.864 448.765 439.361 448.469 437.609 448.469C435.265 448.469 433.288 448.966 431.678 449.96C430.068 450.931 429.263 452.233 429.263 453.866C429.263 455.169 429.784 456.269 430.826 457.169C431.868 458.069 433.655 458.791 436.188 459.335L446.06 461.324C451.363 462.413 455.317 464.165 457.921 466.58C460.525 468.994 461.827 472.167 461.827 476.097C461.827 479.671 460.774 482.808 458.667 485.507C456.584 488.206 453.719 490.313 450.073 491.828C446.451 493.32 442.272 494.065 437.538 494.065C430.317 494.065 424.564 492.562 420.279 489.555C416.018 486.525 413.52 482.406 412.786 477.197L427.665 476.416C428.115 478.618 429.204 480.299 430.933 481.459C432.661 482.595 434.874 483.163 437.573 483.163C440.225 483.163 442.355 482.654 443.965 481.636C445.599 480.595 446.427 479.257 446.451 477.624C446.427 476.25 445.847 475.126 444.711 474.25C443.575 473.35 441.823 472.664 439.455 472.19L430.009 470.308C424.683 469.243 420.717 467.396 418.113 464.768C415.532 462.141 414.242 458.791 414.242 454.719C414.242 451.215 415.189 448.196 417.083 445.663C419.001 443.13 421.688 441.177 425.144 439.804C428.624 438.431 432.696 437.744 437.36 437.744C444.249 437.744 449.671 439.2 453.624 442.112C457.602 445.024 459.922 448.99 460.585 454.009ZM500.366 438.455V449.818H467.518V438.455H500.366ZM474.975 425.386H490.103V476.239C490.103 477.635 490.316 478.724 490.743 479.506C491.169 480.263 491.761 480.796 492.518 481.104C493.299 481.411 494.199 481.565 495.217 481.565C495.927 481.565 496.637 481.506 497.348 481.388C498.058 481.246 498.602 481.139 498.981 481.068L501.36 492.325C500.603 492.562 499.538 492.834 498.164 493.142C496.791 493.473 495.122 493.675 493.157 493.746C489.511 493.888 486.315 493.402 483.569 492.29C480.847 491.177 478.728 489.449 477.213 487.105C475.698 484.761 474.952 481.802 474.975 478.227V425.386ZM510.221 493V438.455H524.887V447.972H525.455C526.449 444.586 528.118 442.029 530.462 440.301C532.806 438.549 535.505 437.673 538.559 437.673C539.316 437.673 540.133 437.721 541.009 437.815C541.885 437.91 542.654 438.04 543.317 438.206V451.629C542.607 451.416 541.624 451.227 540.37 451.061C539.115 450.895 537.967 450.812 536.925 450.812C534.7 450.812 532.711 451.298 530.959 452.268C529.231 453.215 527.858 454.541 526.84 456.246C525.846 457.95 525.348 459.915 525.348 462.141V493H510.221ZM551.138 493V438.455H566.266V493H551.138ZM558.738 431.423C556.489 431.423 554.559 430.678 552.95 429.186C551.363 427.671 550.57 425.86 550.57 423.753C550.57 421.67 551.363 419.882 552.95 418.391C554.559 416.875 556.489 416.118 558.738 416.118C560.987 416.118 562.905 416.875 564.491 418.391C566.101 419.882 566.906 421.67 566.906 423.753C566.906 425.86 566.101 427.671 564.491 429.186C562.905 430.678 560.987 431.423 558.738 431.423ZM593.512 461.466V493H578.385V438.455H592.802V448.078H593.441C594.649 444.906 596.673 442.396 599.514 440.55C602.355 438.679 605.799 437.744 609.848 437.744C613.636 437.744 616.938 438.573 619.755 440.23C622.573 441.887 624.762 444.255 626.325 447.332C627.887 450.386 628.669 454.032 628.669 458.27V493H613.541V460.969C613.565 457.631 612.712 455.027 610.984 453.156C609.256 451.262 606.877 450.315 603.846 450.315C601.81 450.315 600.011 450.753 598.449 451.629C596.91 452.505 595.702 453.784 594.826 455.464C593.974 457.122 593.536 459.122 593.512 461.466ZM665.165 514.591C660.265 514.591 656.063 513.916 652.559 512.567C649.079 511.241 646.309 509.43 644.249 507.134C642.19 504.837 640.852 502.257 640.237 499.392L654.228 497.51C654.654 498.599 655.329 499.617 656.252 500.564C657.175 501.511 658.395 502.268 659.91 502.837C661.449 503.429 663.319 503.724 665.521 503.724C668.811 503.724 671.522 502.92 673.653 501.31C675.807 499.723 676.884 497.06 676.884 493.32V483.341H676.245C675.582 484.856 674.588 486.288 673.262 487.638C671.936 488.987 670.232 490.088 668.148 490.94C666.065 491.793 663.579 492.219 660.691 492.219C656.595 492.219 652.867 491.272 649.505 489.378C646.167 487.46 643.504 484.536 641.515 480.607C639.55 476.653 638.567 471.658 638.567 465.621C638.567 459.442 639.574 454.281 641.586 450.138C643.598 445.995 646.273 442.893 649.612 440.834C652.973 438.774 656.655 437.744 660.656 437.744C663.71 437.744 666.266 438.265 668.326 439.307C670.386 440.325 672.043 441.603 673.298 443.142C674.576 444.657 675.558 446.149 676.245 447.616H676.813V438.455H691.835V493.533C691.835 498.173 690.698 502.055 688.425 505.18C686.153 508.305 683.004 510.649 678.979 512.212C674.978 513.798 670.374 514.591 665.165 514.591ZM665.485 480.855C667.924 480.855 669.983 480.251 671.664 479.044C673.369 477.813 674.671 476.061 675.57 473.788C676.494 471.492 676.955 468.746 676.955 465.55C676.955 462.354 676.505 459.584 675.606 457.24C674.706 454.873 673.404 453.038 671.7 451.736C669.995 450.434 667.924 449.783 665.485 449.783C662.999 449.783 660.904 450.457 659.2 451.807C657.495 453.133 656.205 454.979 655.329 457.347C654.453 459.714 654.015 462.448 654.015 465.55C654.015 468.698 654.453 471.421 655.329 473.717C656.228 475.99 657.519 477.754 659.2 479.009C660.904 480.24 662.999 480.855 665.485 480.855Z" fill="#FA8F00"/>
<path d="M980.924 476L966.08 421.455H981.385L989.837 458.102H990.334L999.141 421.455H1014.16L1023.11 457.889H1023.57L1031.88 421.455H1047.15L1032.34 476H1016.33L1006.95 441.696H1006.28L996.904 476H980.924ZM1055.22 476V421.455H1070.35V476H1055.22ZM1062.82 414.423C1060.57 414.423 1058.64 413.678 1057.03 412.186C1055.45 410.671 1054.65 408.86 1054.65 406.753C1054.65 404.67 1055.45 402.882 1057.03 401.391C1058.64 399.875 1060.57 399.118 1062.82 399.118C1065.07 399.118 1066.99 399.875 1068.57 401.391C1070.18 402.882 1070.99 404.67 1070.99 406.753C1070.99 408.86 1070.18 410.671 1068.57 412.186C1066.99 413.678 1065.07 414.423 1062.82 414.423ZM1111.48 421.455V432.818H1078.63V421.455H1111.48ZM1086.09 408.386H1101.22V459.239C1101.22 460.635 1101.43 461.724 1101.86 462.506C1102.28 463.263 1102.88 463.796 1103.63 464.104C1104.41 464.411 1105.31 464.565 1106.33 464.565C1107.04 464.565 1107.75 464.506 1108.46 464.388C1109.17 464.246 1109.72 464.139 1110.1 464.068L1112.48 475.325C1111.72 475.562 1110.65 475.834 1109.28 476.142C1107.91 476.473 1106.24 476.675 1104.27 476.746C1100.63 476.888 1097.43 476.402 1094.68 475.29C1091.96 474.177 1089.84 472.449 1088.33 470.105C1086.81 467.761 1086.07 464.802 1086.09 461.227V408.386ZM1137.64 444.466V476H1122.51V403.273H1137.21V431.078H1137.85C1139.08 427.858 1141.07 425.337 1143.81 423.514C1146.56 421.668 1150.01 420.744 1154.15 420.744C1157.94 420.744 1161.24 421.573 1164.06 423.23C1166.9 424.864 1169.1 427.219 1170.66 430.297C1172.25 433.351 1173.03 437.009 1173 441.27V476H1157.88V443.969C1157.9 440.607 1157.05 437.991 1155.32 436.121C1153.62 434.25 1151.22 433.315 1148.15 433.315C1146.09 433.315 1144.26 433.753 1142.68 434.629C1141.12 435.505 1139.88 436.784 1138.98 438.464C1138.11 440.122 1137.66 442.122 1137.64 444.466Z" fill="#FA8F00"/>
<path d="M713.234 522.273V595H699.953L668.312 549.226H667.779V595H652.403V522.273H665.897L697.289 568.011H697.929V522.273H713.234ZM750.299 596.065C744.783 596.065 740.013 594.893 735.988 592.55C731.987 590.182 728.897 586.892 726.719 582.678C724.541 578.44 723.452 573.527 723.452 567.94C723.452 562.306 724.541 557.382 726.719 553.168C728.897 548.93 731.987 545.639 735.988 543.295C740.013 540.928 744.783 539.744 750.299 539.744C755.815 539.744 760.574 540.928 764.575 543.295C768.599 545.639 771.701 548.93 773.879 553.168C776.057 557.382 777.146 562.306 777.146 567.94C777.146 573.527 776.057 578.44 773.879 582.678C771.701 586.892 768.599 590.182 764.575 592.55C760.574 594.893 755.815 596.065 750.299 596.065ZM750.37 584.347C752.879 584.347 754.975 583.636 756.656 582.216C758.336 580.772 759.603 578.807 760.455 576.321C761.331 573.835 761.769 571.006 761.769 567.834C761.769 564.661 761.331 561.832 760.455 559.347C759.603 556.861 758.336 554.896 756.656 553.452C754.975 552.008 752.879 551.286 750.37 551.286C747.837 551.286 745.706 552.008 743.978 553.452C742.273 554.896 740.983 556.861 740.107 559.347C739.255 561.832 738.829 564.661 738.829 567.834C738.829 571.006 739.255 573.835 740.107 576.321C740.983 578.807 742.273 580.772 743.978 582.216C745.706 583.636 747.837 584.347 750.37 584.347ZM802.11 563.466V595H786.982V540.455H801.4V550.078H802.039C803.246 546.906 805.271 544.396 808.112 542.55C810.952 540.679 814.397 539.744 818.445 539.744C822.233 539.744 825.536 540.573 828.353 542.23C831.17 543.887 833.36 546.255 834.923 549.332C836.485 552.386 837.266 556.032 837.266 560.27V595H822.138V562.969C822.162 559.631 821.31 557.027 819.582 555.156C817.853 553.262 815.474 552.315 812.444 552.315C810.408 552.315 808.609 552.753 807.046 553.629C805.507 554.505 804.3 555.784 803.424 557.464C802.572 559.122 802.134 561.122 802.11 563.466ZM874.047 596.065C868.436 596.065 863.607 594.929 859.559 592.656C855.534 590.36 852.433 587.116 850.255 582.926C848.077 578.712 846.988 573.729 846.988 567.976C846.988 562.365 848.077 557.441 850.255 553.203C852.433 548.965 855.498 545.663 859.452 543.295C863.429 540.928 868.093 539.744 873.444 539.744C877.042 539.744 880.392 540.324 883.493 541.484C886.618 542.621 889.341 544.337 891.661 546.634C894.005 548.93 895.828 551.818 897.13 555.298C898.432 558.755 899.083 562.803 899.083 567.443V571.598H853.025V562.223H884.843C884.843 560.045 884.369 558.116 883.422 556.435C882.475 554.754 881.161 553.44 879.48 552.493C877.823 551.522 875.894 551.037 873.692 551.037C871.396 551.037 869.36 551.57 867.584 552.635C865.832 553.677 864.459 555.085 863.465 556.861C862.471 558.613 861.962 560.566 861.938 562.72V571.634C861.938 574.332 862.435 576.664 863.429 578.629C864.447 580.594 865.88 582.109 867.726 583.175C869.573 584.24 871.763 584.773 874.296 584.773C875.977 584.773 877.516 584.536 878.912 584.062C880.309 583.589 881.505 582.879 882.499 581.932C883.493 580.985 884.251 579.825 884.772 578.452L898.763 579.375C898.053 582.737 896.597 585.672 894.395 588.182C892.217 590.668 889.4 592.609 885.944 594.006C882.511 595.379 878.545 596.065 874.047 596.065Z" fill="#FA8F00"/>
</svg>
